<mxfile host="app.diagrams.net" modified="2024-01-02T07:28:25.773Z" agent="Mozilla/5.0 (Windows NT 10.0; Win64; x64) AppleWebKit/537.36 (KHTML, like Gecko) Chrome/120.0.0.0 Safari/537.36" version="22.1.16" etag="EIvYp_7Khr5FsZ4aH8UI" type="github">
  <diagram name="Side-1" id="KE3W3dw--FaI_GyNdcxV">
    <mxGraphModel>
      <root>
        <mxCell id="0" />
        <mxCell id="1" parent="0" />
      </root>
    </mxGraphModel>
  </diagram>
</mxfile>
